<svg viewBox="56.65 54.77 35.54 22.018" width="35.54" height="22.018" xmlns="http://www.w3.org/2000/svg">
  <defs>
    <style>.cls-1{fill:#272362;}.cls-2{fill:none;stroke:#272362;stroke-miterlimit:10;stroke-width:0.75px;}</style>
  </defs>
  <path class="cls-1" d="M62.84,76.78a16.28,16.28,0,0,1-3.19-.32,12.6,12.6,0,0,1-3-1v-4a16.08,16.08,0,0,0,3.28,1.32,12.12,12.12,0,0,0,3,.41A6.85,6.85,0,0,0,64.78,73,2.46,2.46,0,0,0,66,72.21a2.16,2.16,0,0,0,.45-1.45,2.11,2.11,0,0,0-.52-1.5,5.89,5.89,0,0,0-1.52-1c-.66-.33-1.45-.73-2.37-1.21a19,19,0,0,1-2.52-1.62,6.59,6.59,0,0,1-1.8-2.06,5.71,5.71,0,0,1-.66-2.86A5.35,5.35,0,0,1,58,57.33a5.29,5.29,0,0,1,2.46-1.89,9.75,9.75,0,0,1,3.67-.63,18.92,18.92,0,0,1,3,.28,12.54,12.54,0,0,1,3.42,1.1l-1.38,3.39a15.82,15.82,0,0,0-2.67-.9,9.63,9.63,0,0,0-2.13-.27,3.89,3.89,0,0,0-1.59.27,1.88,1.88,0,0,0-.93.78,2.42,2.42,0,0,0-.3,1.26,2.17,2.17,0,0,0,.42,1.41,3.73,3.73,0,0,0,1.26,1l2.13,1.1a27.72,27.72,0,0,1,3,1.69,6.24,6.24,0,0,1,2,1.86A5.22,5.22,0,0,1,71,70.54a6.13,6.13,0,0,1-.58,2.73,5.51,5.51,0,0,1-1.65,2,7.35,7.35,0,0,1-2.55,1.19A13.2,13.2,0,0,1,62.84,76.78Z"/>
  <path class="cls-1" d="M76.61,76.49V55.07h5.88l1.84,12.15h.12l2.16-12.15h5.58V76.49H88.33V71.6c0-.64,0-1.37,0-2.18s.06-1.64.1-2.5.09-1.71.14-2.55.1-1.63.15-2.36.09-1.35.13-1.87S89,59.25,89,59h-.18L86.59,71.45H82.33L80,59h-.18l.09,1.18q.06.8.15,1.89c.06.73.12,1.52.18,2.36s.12,1.69.17,2.56.09,1.72.12,2.55,0,1.6,0,2.3v4.65Z"/>
  <line class="cls-2" x1="73.51" y1="54.77" x2="73.51" y2="76.49"/>
</svg>